<?xml version="1.0" standalone="no"?>
<!DOCTYPE svg PUBLIC "-//W3C//DTD SVG 20010904//EN"
 "http://www.w3.org/TR/2001/REC-SVG-20010904/DTD/svg10.dtd">
<svg version="1.0" xmlns="http://www.w3.org/2000/svg"
 width="1000.000000pt" height="400.000000pt" viewBox="0 0 1311.000000 598.000000"
 preserveAspectRatio="xMidYMid meet">

<g transform="translate(0.000000,598.000000) scale(0.100000,-0.100000)"
fill="#000000" stroke="none">
<path d="M2082 3750 c-90 -13 -181 -45 -249 -89 -70 -45 -108 -88 -142 -161
-23 -48 -26 -68 -26 -160 0 -123 14 -159 88 -227 73 -68 148 -98 379 -152 124
-30 207 -60 227 -85 25 -30 24 -71 -3 -103 -37 -44 -94 -57 -224 -50 -122 6
-215 30 -315 81 l-67 34 -14 -31 c-7 -18 -32 -74 -55 -125 -23 -52 -38 -98
-35 -104 12 -19 148 -76 234 -97 165 -40 356 -44 506 -11 68 16 174 74 229
126 26 25 59 71 73 102 24 50 27 70 27 157 0 120 -15 156 -99 232 -67 62 -141
93 -334 139 -172 42 -249 69 -262 94 -19 36 -12 85 18 113 38 36 80 47 182 47
93 0 185 -21 284 -65 32 -14 59 -25 60 -23 1 2 26 59 54 127 60 143 63 133
-50 175 -129 48 -354 74 -486 56z"/>
<path d="M3130 3590 l0 -140 195 0 195 0 0 -490 0 -490 175 0 175 0 0 490 0
490 195 0 195 0 0 140 0 140 -565 0 -565 0 0 -140z"/>
<path d="M4780 3591 l0 -141 309 0 c379 0 407 -6 452 -105 33 -71 15 -170 -39
-218 -47 -42 -83 -46 -409 -47 l-313 0 0 -305 0 -305 175 0 175 0 2 168 3 167
97 3 96 3 117 -171 116 -170 185 0 c101 0 184 3 184 6 0 3 -59 92 -132 197
l-131 191 24 15 c110 73 170 146 200 244 28 91 23 233 -11 322 -29 75 -129
178 -210 217 -122 58 -145 61 -532 65 l-358 4 0 -140z"/>
<path d="M6886 3698 c-7 -18 -129 -294 -271 -613 -141 -319 -259 -588 -262
-598 -5 -16 6 -17 173 -15 l179 3 175 438 c97 241 181 446 186 454 7 12 39
-58 133 -293 68 -170 151 -375 184 -456 l60 -148 182 0 183 0 -279 628 -278
627 -175 3 -176 2 -14 -32z"/>
<path d="M8290 3591 l0 -140 348 -3 c322 -3 350 -5 394 -23 76 -33 133 -87
170 -162 30 -62 33 -75 33 -163 0 -88 -3 -101 -33 -162 -37 -76 -83 -120 -162
-157 -51 -24 -67 -26 -222 -29 l-168 -4 0 171 0 171 -180 0 -180 0 0 -310 0
-310 333 0 c428 0 520 14 680 104 76 42 185 153 221 225 88 173 88 439 -1 604
-36 65 -130 166 -194 207 -71 46 -191 90 -289 106 -60 10 -183 14 -417 14
l-333 0 0 -139z"/>
<path d="M10170 3595 l0 -135 495 0 495 0 0 135 0 135 -495 0 -495 0 0 -135z"/>
<path d="M10170 3110 l0 -130 495 0 495 0 0 130 0 130 -495 0 -495 0 0 -130z"/>
<path d="M10170 2605 l0 -135 495 0 495 0 0 135 0 135 -495 0 -495 0 0 -135z"/>
</g>
</svg>
